<svg width="51" height="51" viewBox="0 0 51 51" fill="none" xmlns="http://www.w3.org/2000/svg">
<g clip-path="url(#clip0_4_2)">
<path d="M44.1332 50.87L34.61 41.9429L34.4644 41.9625V41.8646L14.212 23.0119L19.2023 18.47L16.2705 2.61264L2.36 18.8616C-0.0104056 21.1129 -0.447057 24.7738 1.25797 27.4754L9.94945 41.0619C11.2802 43.1567 13.6922 44.4096 16.2913 44.39L20.5955 44.3508L44.1332 50.87Z" fill="#18B6F6"/>
<path d="M49.3306 18.5482L47.4176 15.2201L46.4195 13.517L46.0245 12.8513L45.983 12.8905L40.743 4.33534C39.4331 2.18187 36.9796 0.85063 34.318 0.870208L29.7228 0.987659L16.0201 1.02682C13.421 1.04639 11.0506 2.33848 9.74065 4.43322L1.40265 20.0165L16.3113 2.5734L35.8567 22.816L32.3842 26.1245L34.4635 41.9624L34.4843 41.9232V41.9624H34.4428L34.4843 42.0015L36.1062 43.4893L43.9868 50.7524C44.3195 51.0461 44.8601 50.6937 44.6313 50.3217L39.7658 41.2967L48.2494 26.5161L48.5196 26.2224C48.6236 26.1049 48.7275 25.9875 48.8108 25.8701C50.4743 23.7361 50.7029 20.8779 49.3306 18.5482Z" fill="#AC7EF4"/>
<path d="M35.9189 22.7378L16.3111 2.59302L19.0973 18.3721L14.107 22.9336L34.4218 41.9428L32.592 26.1637L35.9189 22.7378Z" fill="white"/>
</g>
<defs>
<clipPath id="clip0_4_2">
<rect width="50" height="50" fill="white" transform="translate(0.22641 0.869995)"/>
</clipPath>
</defs>
</svg>
